<svg xmlns="http://www.w3.org/2000/svg" width="59" height="60" viewBox="0 0 59 60">
    <g fill="#1E1E1E" fill-rule="evenodd">
        <path d="M29.475 59.198C13.222 59.198 0 45.92 0 29.6 0 13.278 13.222 0 29.475 0c16.252 0 29.474 13.278 29.474 29.6 0 16.32-13.222 29.598-29.474 29.598zm0-56.948C14.457 2.25 2.24 14.518 2.24 29.6c0 15.08 12.216 27.348 27.234 27.348 15.016 0 27.234-12.268 27.234-27.349 0-15.08-12.218-27.349-27.234-27.349z"/>
        <path d="M37.472 25.444a.43.43 0 0 0-.034-.034 4280.838 4280.838 0 0 0-5.993 3.317L28.18 25.33l-6.697 7.112.036.048 6.04-3.3a5261.25 5261.25 0 0 0 3.185 3.393c2.256-2.395 4.491-4.769 6.727-7.14M17 29.304V27.84c.015-.064.035-.125.041-.188.222-2.493 1.194-4.666 2.878-6.504 2.298-2.506 5.183-3.839 8.56-4.103 2.956-.23 5.709.43 8.195 2.057 2.676 1.75 4.432 4.168 5.108 7.32.1.467.147.945.22 1.418v1.465c-.074.48-.124.965-.226 1.44-.652 3.045-2.316 5.423-4.877 7.147-3.278 2.206-6.873 2.746-10.7 1.843-.193-.045-.348-.045-.526.058-.592.34-1.196.66-1.792.99-.733.404-1.463.812-2.193 1.218h-.049c.005-.073.015-.145.015-.218.001-1.315-.002-2.632.005-3.949a.453.453 0 0 0-.197-.405c-2.202-1.736-3.663-3.946-4.243-6.708-.099-.467-.146-.943-.219-1.416"/>
    </g>
</svg>
