<svg height="37" viewBox="0 0 37 37" width="37" xmlns="http://www.w3.org/2000/svg"><g fill="none" fill-rule="evenodd"><circle cx="18.5" cy="18.5" fill="#fff" r="17.5"/><path d="m6.19 18.522v3.036c0 .584.466 1.05 1.05 1.05h.35v-5.137h-.35c-.584 0-1.05.467-1.05 1.05m15.998.468c-1.285 0-2.22.7-2.22-.35 0-1.052 1.052-1.869 2.22-1.869 1.284 0 2.218.817 2.218 1.869.117.934-.934.35-2.218.35m-7.474 0c-1.285 0-2.219.7-2.219-.35 0-1.052 1.051-1.869 2.219-1.869 1.284 0 2.219.817 2.219 1.869 0 .934-.935.35-2.22.35m9.343-5.255h-11.56c-1.753 0-3.27 1.518-3.27 3.27v6.54c0 1.75 1.517 3.269 3.27 3.269h11.56c1.752 0 3.27-1.518 3.27-3.27v-6.54a3.264 3.264 0 0 0 -3.27-3.27" fill="#ff003c"/><path d="m29.545 24.244h-.468c-.233 2.452-2.335 4.32-4.904 4.32h-11.678c-2.452 0-4.554-1.868-4.905-4.32h-.35c-1.518 0-2.686-1.285-2.686-2.686v-3.036c0-1.518 1.285-2.686 2.686-2.686h.467c.584-2.102 2.57-3.737 4.788-3.737h5.021v-1.284a2.768 2.768 0 0 1 -1.985-2.686c0-1.519 1.285-2.803 2.803-2.803s2.803 1.284 2.803 2.803c0 1.284-.818 2.218-1.986 2.686v1.284h4.905c2.219 0 4.087 1.518 4.788 3.62h.7c1.519 0 2.686 1.285 2.686 2.686v3.036c0 1.518-1.284 2.803-2.685 2.803m-11.211-24.056a18.29 18.29 0 0 0 -18.334 18.334 18.29 18.29 0 0 0 18.334 18.334 18.29 18.29 0 0 0 18.334-18.334 18.29 18.29 0 0 0 -18.334-18.334" fill="#f52842"/><path d="m29.545 17.354h-.468v5.138h.468c.583 0 1.05-.467 1.05-1.05v-3.037c0-.584-.467-1.051-1.05-1.051" fill="#ff003c"/></g></svg>