<svg xmlns="http://www.w3.org/2000/svg" xmlns:xlink="http://www.w3.org/1999/xlink" width="30" height="30" viewBox="0 0 30 30">
    <defs>
        <path id="a" d="M15.038.086A14.953 14.953 0 1 0 29.99 15.038 14.917 14.917 0 0 0 15.04.086z"/>
        <path id="c" d="M13.778 3.52c2.71.274 4.997.821 6.324 1.342-5.471 4.464-14.144 4.398-19.668 0 1.27-.549 3.373-1.068 6.01-1.335.107-.866.102-1.748-.003-2.618h7.347a10.77 10.77 0 0 0-.01 2.61z"/>
    </defs>
    <g fill="none" fill-rule="evenodd">
        <g>
            <mask id="b" fill="#fff">
                <use xlink:href="#a"/>
            </mask>
            <use fill="#E80439" fill-rule="nonzero" xlink:href="#a"/>
            <g mask="url(#b)">
                <g transform="translate(5 22)">
                    <mask id="d" fill="#fff">
                        <use xlink:href="#c"/>
                    </mask>
                    <use fill="#FFF" fill-rule="nonzero" xlink:href="#c"/>
                    <ellipse cx="10" cy="1" fill="#FFCBD7" mask="url(#d)" rx="5" ry="2"/>
                </g>
            </g>
        </g>
        <path fill="#FFF" fill-rule="nonzero" d="M15.064 6.026a9.153 9.153 0 1 0 .086 18.306 9.153 9.153 0 0 0-.086-18.306zm6.138 11.143c-4.205 1.08-7.945 1.1-12.17.058-.565-2.18-.459-3.912.357-5.995 4.463.86 7.6.783 11.4-.055.832 2.074.958 3.806.413 5.992z"/>
    </g>
</svg>
