<svg xmlns="http://www.w3.org/2000/svg" xmlns:xlink="http://www.w3.org/1999/xlink" width="25" height="20" viewBox="0 0 25 20">
    <defs>
        <path id="a" d="M.099.03h13.895v15.233H.099z"/>
    </defs>
    <g fill="none" fill-rule="evenodd">
        <path fill="#FFF" d="M11.9 11.707c-1.618-1.579-3.043-2.965-3.851-6.162h5.66V3.158H8.088V0H5.66v3.196H0v2.388h5.775s-.038.462-.115.809C4.852 9.55 3.89 11.553 0 13.517l.808 2.388c3.697-1.964 5.622-4.43 6.47-7.163.808 2.08 2.195 3.774 3.773 5.314l.848-2.35z"/>
        <g transform="translate(11.053 4.257)">
            <mask id="b" fill="#fff">
                <use xlink:href="#a"/>
            </mask>
            <path fill="#FFF" d="M4.828 9.582h4.415l-2.207-6.32-2.208 6.32zm5.158 2.134H4.085L2.85 15.263H.099L5.853.03h2.375l5.766 15.234h-2.762l-1.246-3.547z" mask="url(#b)"/>
        </g>
    </g>
</svg>
