<svg height="20" viewBox="0 0 25 20" width="25" xmlns="http://www.w3.org/2000/svg" xmlns:xlink="http://www.w3.org/1999/xlink"><mask id="a" fill="#fff"><path d="m0 .448h4.265v5.692h-4.265z" fill="none"/></mask><mask id="b" fill="#fff"><path d="m.265.448h4.265v5.692h-4.265z" fill="none"/></mask><g fill="#fff" fill-rule="evenodd"><path d="m22.19 8.526-.176.052c-4.369 1.313-6.976 4.06-8.454 6.322v-12.5h-2.102v12.62c-1.48-2.31-4.103-5.112-8.532-6.443l-.176-.052-.604 2.013.175.053c5.456 1.639 7.774 5.795 8.676 8.14.02.041.483.982 1.512.982 1.037 0 1.433-.951 1.45-.992v-.002c.918-2.34 3.263-6.507 8.66-8.128l.175-.053-.605-2.013z"/><path d="m12.47 0-3.044 3.405h6.088z"/><path d="m0 2.083 2.101 4.057 2.164-5.692z" mask="url(#a)" transform="translate(0 6.543)"/><path d="m4.53 2.083-2.101 4.057-2.164-5.692z" mask="url(#b)" transform="translate(20.488 6.543)"/></g></svg>