<svg height="20" viewBox="0 0 25 20" width="25" xmlns="http://www.w3.org/2000/svg" xmlns:xlink="http://www.w3.org/1999/xlink"><mask id="a" fill="#fff"><path d="m.099.03h13.895v15.233h-13.895z" fill="none"/></mask><g fill="#fff" fill-rule="evenodd"><path d="m11.9 11.707c-1.618-1.579-3.043-2.965-3.851-6.162h5.66v-2.387h-5.621v-3.158h-2.428v3.196h-5.66v2.388h5.775s-.038.462-.115.809c-.808 3.157-1.77 5.16-5.66 7.124l.808 2.388c3.697-1.964 5.622-4.43 6.47-7.163.808 2.08 2.195 3.774 3.773 5.314l.848-2.35z"/><path d="m4.828 9.582h4.415l-2.207-6.32zm5.158 2.134h-5.901l-1.235 3.547h-2.751l5.754-15.233h2.375l5.766 15.234h-2.762l-1.246-3.547z" mask="url(#a)" transform="translate(11.053 4.257)"/></g></svg>