<svg xmlns="http://www.w3.org/2000/svg" width="37" height="37" viewBox="0 0 37 37">
    <path fill="#000" fill-rule="evenodd" d="M18.502 0C8.284 0 0 8.284 0 18.502 0 28.716 8.284 37 18.502 37 28.716 37 37 28.716 37 18.502 37 8.284 28.716 0 18.502 0zm-3.59 24.993c-3.45 0-6.248-2.875-6.248-6.33s2.797-6.298 6.247-6.298c1.618 0 3.094.603 4.2 1.611-1.305 1.238-1.262 1.301-1.778 1.818-.638-.536-1.34-.924-2.422-.924-2.051 0-3.65 1.665-3.65 3.717 0 2.051 1.599 3.854 3.65 3.854 2.022 0 2.846-.888 3.377-2.35h-3.304v-2.436h5.926c.414 2.924-.843 7.338-5.999 7.338zm13.23-5.876h-1.95v2.436H24.73v-2.436h-2.436v-1.462h2.436v-1.95h1.462v1.95h1.95v1.462z"/>
</svg>
