<svg height="60" viewBox="0 0 59 60" width="59" xmlns="http://www.w3.org/2000/svg"><g fill="#1e1e1e" fill-rule="evenodd"><path d="m29.475 59.198c-16.253 0-29.475-13.278-29.475-29.598 0-16.322 13.222-29.6 29.475-29.6 16.252 0 29.474 13.278 29.474 29.6 0 16.32-13.222 29.598-29.474 29.598zm0-56.948c-15.018 0-27.235 12.268-27.235 27.35 0 15.08 12.216 27.348 27.234 27.348 15.016 0 27.234-12.268 27.234-27.349 0-15.08-12.218-27.349-27.234-27.349z"/><path d="m25.562 28.155c0 .78.003 1.558 0 2.337-.003.44.173.778.634.78.462.004.647-.332.647-.77l.001-4.615c0-.437-.18-.775-.638-.777-.46-.003-.647.324-.644.768.004.76 0 1.518 0 2.277zm-2.842 1.848c0-1.397-.008-2.728.004-4.062.004-.47-.169-.813-.659-.81-.453.003-.645.335-.645.775 0 1.538-.004 3.073.003 4.61.003.496.243.787.768.787h2.095c.451.002.75-.206.745-.665-.002-.432-.302-.628-.718-.633-.498-.006-.997-.002-1.593-.002zm12.025-3.724c.75 0 1.5-.01 2.251.004.451.01.769-.173.782-.624.015-.459-.321-.668-.752-.674-.94-.012-1.878-.013-2.817 0-.497.008-.78.28-.78.79-.005 1.54-.007 3.078.002 4.616.003.528.274.803.825.796.899-.01 1.798-.008 2.697.002.46.004.86-.07.916-.623.043-.44-.29-.681-.914-.686-.73-.005-1.462 0-2.2 0v-1.134c.623 0 1.217.009 1.81 0 .433-.01.772-.207.76-.67-.011-.455-.34-.627-.786-.617-.592.016-1.184.004-1.794.004zm-3.43 2.154c-.041.014-.083.026-.125.038l-.48-.655c-.54-.74-1.056-1.5-1.634-2.212-.153-.187-.536-.346-.744-.284-.198.06-.426.421-.432.655-.038 1.516-.015 3.035-.023 4.55-.003.427.185.723.6.746.464.026.679-.296.69-.73.018-.598.006-1.198.008-1.796v-.663c.82.944 1.498 1.904 2.219 2.831.146.187.485.365.687.322.201-.042.486-.362.49-.566.04-1.655.042-3.313-.01-4.967-.006-.209-.395-.561-.604-.56-.21.003-.467.333-.608.576-.097.166-.033.43-.033.648-.003.69-.002 1.377-.002 2.067zm-15.315.717v-1.8c.03-.072.078-.143.088-.218.39-2.886 1.823-5.202 4.083-6.943 4.315-3.327 9.159-3.94 14.278-2.35 3.548 1.104 6.286 3.279 7.79 6.768.372.864.514 1.827.76 2.744v1.92c-.03.07-.084.137-.092.209-.264 2.323-1.236 4.32-2.814 6.02-2.565 2.765-5.672 4.839-8.827 6.844a8.174 8.174 0 0 1 -1.886.874c-.97.31-1.715-.257-1.735-1.286a5.84 5.84 0 0 1 .182-1.535c.126-.495-.028-.7-.497-.794-.761-.15-1.532-.28-2.274-.5-4.177-1.243-7.238-3.712-8.61-7.976-.207-.64-.3-1.317-.446-1.977z"/></g></svg>