<svg xmlns="http://www.w3.org/2000/svg" width="37" height="37" viewBox="0 0 37 37">
    <path fill="#000" fill-rule="evenodd" d="M18.502 0C8.284 0 0 8.284 0 18.502 0 28.716 8.284 37 18.502 37 28.716 37 37 28.716 37 18.502 37 8.284 28.716 0 18.502 0zm-8.054 15.53h3.41v11.208h-3.41V15.53zm1.505-.975h-.024c-1.272 0-2.09-.97-2.09-2.046 0-1.097.842-1.988 2.139-1.988 1.29 0 2.085.92 2.114 2.017 0 1.077-.823 2.017-2.139 2.017zM27.99 26.738h-4.386V21.06c0-1.506-.502-2.53-1.87-2.53-1.044 0-1.648.693-1.92 1.36-.103.239-.108.57-.108.907v5.94h-3.772s.05-10.233 0-11.208h3.772v1.915c.487-.76 1.657-1.847 3.664-1.847 2.49 0 4.62 1.594 4.62 5.034v6.106z"/>
</svg>
