<svg height="60" viewBox="0 0 59 60" width="59" xmlns="http://www.w3.org/2000/svg" xmlns:xlink="http://www.w3.org/1999/xlink"><mask id="a" fill="#fff"><path d="m0 0h27v26.906h-27z" fill="none"/></mask><g fill="#1e1e1e" fill-rule="evenodd"><path d="m29.52 59.67c-16.252 0-29.474-13.278-29.474-29.599s13.222-29.6 29.474-29.6c16.253 0 29.475 13.279 29.475 29.6s-13.222 29.599-29.475 29.599zm0-56.948c-15.017 0-27.234 12.268-27.234 27.35 0 15.08 12.217 27.348 27.234 27.348s27.234-12.269 27.234-27.349-12.217-27.35-27.234-27.35z"/><path d="m13.088 4.518c-1.295-.086-2.596.204-3.814.85-2.095 1.11-3.144 3.769-2.35 5.937.498 1.36 1.566 2.146 2.85 2.593 1.533.535 3.12.909 4.676 1.383.552.168 1.118.359 1.61.653.94.566 1.068 1.675.293 2.46-.3.305-.69.595-1.092.716-1.621.492-3.14.369-4.389-.951-.483-.51-.966-1.026-1.498-1.485-.5-.43-1.09-.588-1.735-.265-.618.308-.829.834-.838 1.482-.016 1.28.682 2.152 1.652 2.85 1.261.903 2.712 1.302 4.228 1.457 2.178.221 4.26-.032 6.08-1.397 2.022-1.518 2.614-4.613 1.23-6.524-.782-1.075-1.927-1.626-3.148-2.012-1.128-.357-2.286-.62-3.423-.955-.693-.204-1.39-.416-2.043-.717-.796-.366-1.003-1.123-.515-1.857a2.02 2.02 0 0 1 .846-.725c1.472-.62 2.874-.398 4.158.526.537.388 1.008.864 1.543 1.256.653.478 1.724.414 2.313-.087a1.67 1.67 0 0 0 .32-2.19c-.368-.574-.859-1.13-1.42-1.51-1.633-1.104-3.503-1.469-5.534-1.488m-12.254 9.094c.058-.64.144-1.14.132-1.639-.01-.441-.032-.926-.215-1.315-2.29-4.895.893-10.314 6.286-10.646 1.31-.081 2.54.271 3.73.807.277.126.62.19.92.157 4.64-.524 8.548.899 11.54 4.505 2.258 2.72 3.195 5.9 2.782 9.438-.056.47.004.877.216 1.319 2.193 4.563-.473 9.757-5.453 10.576-1.532.25-3.039-.018-4.462-.694-.289-.138-.66-.22-.97-.176-6.717.968-12.994-3.515-14.23-10.198-.139-.745-.198-1.508-.276-2.134" mask="url(#a)" transform="translate(16 17)"/></g></svg>