<svg xmlns="http://www.w3.org/2000/svg" width="37" height="37" viewBox="0 0 37 37">
    <path fill="#000" fill-rule="evenodd" d="M18.502 0C8.284 0 0 8.284 0 18.502 0 28.716 8.284 37 18.502 37 28.716 37 37 28.716 37 18.502 37 8.284 28.716 0 18.502 0zm7.032 14.58c.005.165.01.331.01.497 0 5.072-3.767 10.925-10.652 10.925-2.115 0-4.084-.639-5.74-1.725a7.413 7.413 0 0 0 5.545-1.589c-1.642-.034-3.022-1.14-3.5-2.665.23.044.464.068.703.068.346 0 .716-.049 1.028-.136-1.715-.351-2.968-1.906-2.968-3.767v-.044a3.513 3.513 0 0 0 1.662.477 3.874 3.874 0 0 1-1.686-3.196c0-.702.175-1.365.497-1.93 1.847 2.325 4.6 3.85 7.714 4.01a3.713 3.713 0 0 1-.1-.872c0-2.12 1.675-3.84 3.741-3.84 1.077 0 2.05.463 2.733 1.209a7.295 7.295 0 0 0 2.378-.93 3.814 3.814 0 0 1-1.648 2.124 7.219 7.219 0 0 0 2.15-.604 7.635 7.635 0 0 1-1.867 1.988z"/>
</svg>
