<svg height="60" viewBox="0 0 60 60" width="60" xmlns="http://www.w3.org/2000/svg" xmlns:xlink="http://www.w3.org/1999/xlink"><mask id="a" fill="#fff"><path d="m0 .543h21.733v20.26h-21.733z" fill="none"/></mask><g fill="#1e1e1e" fill-rule="evenodd"><path d="m29.86 59.773c-16.465 0-29.86-13.407-29.86-29.886 0-16.48 13.395-29.887 29.86-29.887s29.86 13.407 29.86 29.887-13.395 29.886-29.86 29.886zm0-57.501c-15.214 0-27.59 12.387-27.59 27.615 0 15.227 12.376 27.613 27.59 27.613 15.212 0 27.59-12.387 27.59-27.614 0-15.228-12.378-27.615-27.59-27.615z"/><path d="m8.878 6.85a1.267 1.267 0 0 0 -1.295-1.262 1.268 1.268 0 0 0 -1.252 1.274c0 .71.577 1.289 1.28 1.286a1.282 1.282 0 0 0 1.267-1.298zm5.065-1.262c-.708 0-1.29.58-1.284 1.282a1.304 1.304 0 0 0 1.297 1.278 1.287 1.287 0 0 0 1.263-1.275 1.273 1.273 0 0 0 -1.276-1.285zm-13.944 3.87c.09-.484.148-.976.274-1.45.654-2.483 2.177-4.32 4.324-5.656 2.358-1.467 4.945-1.998 7.7-1.75 2.438.217 4.633 1.054 6.53 2.62 1.318 1.091 2.257 2.454 2.865 4.048.15.397-.135.806-.608.844-.335.027-.674.008-1.01.035-3.33.266-6.2 1.477-8.307 4.165-1.162 1.481-1.737 3.185-1.609 5.088.026.401.116.801.201 1.197.114.535-.166.918-.706.829-.845-.14-1.677-.362-2.519-.533-.147-.03-.336-.024-.462.046-1.013.56-2.015 1.138-3.022 1.71-.367.21-.642.2-.872-.019-.214-.208-.237-.488-.064-.847l1.211-2.51-.327-.248c-2.066-1.59-3.252-3.679-3.54-6.274-.009-.076-.037-.149-.059-.225v-1.07z" mask="url(#a)" transform="translate(14.563 16.706)"/><path d="m33.584 31.161a1.271 1.271 0 0 0 -1.299-1.262 1.287 1.287 0 0 0 -1.262 1.276c0 .697.596 1.288 1.291 1.284a1.284 1.284 0 0 0 1.27-1.298zm3.786.023a1.285 1.285 0 0 0 1.292 1.275 1.305 1.305 0 0 0 1.268-1.278 1.285 1.285 0 0 0 -1.285-1.282c-.713.001-1.28.57-1.275 1.285zm7.613 2.823c-.071.377-.125.759-.217 1.13-.457 1.807-1.467 3.223-3.01 4.264-.066.042-.131.088-.217.144.025.08.046.163.076.242.24.596.472 1.196.718 1.79.125.298.153.575-.097.822-.213.21-.48.217-.849.033-.921-.46-1.837-.925-2.763-1.372a.783.783 0 0 0 -.472-.056c-3.053.646-5.949.287-8.618-1.383-1.538-.963-2.708-2.27-3.248-4.03-.763-2.49-.085-4.652 1.668-6.497 1.566-1.649 3.554-2.514 5.775-2.844 2.424-.36 4.76-.032 6.943 1.113 1.852.97 3.274 2.355 3.964 4.376.165.482.235.996.347 1.495z"/></g></svg>