<svg xmlns="http://www.w3.org/2000/svg" width="37" height="37" viewBox="0 0 37 37">
    <path fill="#000" fill-rule="evenodd" d="M18.502 0C8.284 0 0 8.284 0 18.502 0 28.716 8.284 37 18.502 37 28.716 37 37 28.716 37 18.502 37 8.284 28.716 0 18.502 0zm9 26.323c0 .546-.267 1.127-.808 1.127h-4.552v-6.822h2.315l.351-2.924h-2.666v-1.745c0-.78.21-1.179 1.33-1.179h1.594v-2.549c-.487-.034-1.242-.107-2.232-.107-2.056 0-3.615 1.257-3.615 3.567v2.013h-2.437v2.924h2.437v6.822h-8.44c-.546 0-.819-.58-.819-1.127V10.41c0-.546.273-.99.819-.99h15.915c.54 0 .809.444.809.99v15.914z"/>
</svg>
