<svg height="38" viewBox="0 0 38 38" width="38" xmlns="http://www.w3.org/2000/svg"><g fill-rule="evenodd"><path d="m18.779.133c-10.261 0-18.58 8.28-18.58 18.493 0 10.209 8.319 18.489 18.58 18.489 10.256 0 18.575-8.28 18.575-18.489 0-10.213-8.319-18.493-18.575-18.493zm9.527 25.253c0 1.17-1.047 1.958-2.221 1.958h-13.677c-1.18 0-2.207-.789-2.207-1.958v-13.622c0-1.17 1.028-1.954 2.207-1.954h13.677c1.174 0 2.221.785 2.221 1.954z"/><path d="m15.819 18.597a3.436 3.436 0 0 1 3.444-3.429c1.909 0 3.455 1.534 3.455 3.429 0 1.89-1.546 3.424-3.455 3.424-1.903 0-3.444-1.534-3.444-3.424zm10.04-4.476c0 .31-.252.56-.562.56h-1.81a.561.561 0 0 1 -.563-.56v-1.802c0-.31.252-.56.562-.56h1.81c.311 0 .563.25.563.56zm-1.57 2.995h2.06v8.154c0 .311-.069.613-.377.613h-13.456c-.309 0-.357-.302-.357-.613v-8.154h2.04c-.294 0-.391 1.091-.391 1.588 0 2.986 2.451 5.367 5.455 5.367 3.015 0 5.461-2.355 5.461-5.34 0-.497-.073-1.615-.435-1.615z"/></g></svg>