<svg xmlns="http://www.w3.org/2000/svg" width="37" height="37" viewBox="0 0 37 37">
    <path fill="#000" fill-rule="evenodd" d="M18.5 37C8.283 37 0 28.717 0 18.5S8.283 0 18.5 0 37 8.283 37 18.5 28.717 37 18.5 37zM10 13.032c.195 0 .39.007.584 0a.64.64 0 0 1 .45.164c.102.086.19.185.241.31.02.047.032.1.032.151.002 2.848.001 5.695.002 8.543 0 .087-.03.162-.08.23a.816.816 0 0 1-.472.336.372.372 0 0 1-.086.01h-.641c-.01 0-.02-.003-.03-.004v2.04h5.232v-2.035h-1.305v-9.011c.072-.01.072-.01.09.05l2.113 7.748.875 3.207.014.041h2.364c.03-.113.058-.227.09-.34l2.177-7.877c.256-.927.513-1.854.768-2.782.012-.043.03-.064.078-.046v9.007h-1.302l-.003.051v1.94c0 .016.003.032.005.047h6.244v-2.04c-.018.001-.035.004-.052.004-.19 0-.38-.006-.57.001a.626.626 0 0 1-.435-.16 1.141 1.141 0 0 1-.148-.153.452.452 0 0 1-.105-.301c.001-2.813.002-5.626-.001-8.438 0-.157.047-.286.147-.397.065-.073.14-.14.218-.2a.48.48 0 0 1 .305-.095c.214.002.427 0 .64-.001V11h-6.522l-.639 2.361-1.515 5.587c-.005.017-.015.041-.029.046-.03.012-.047-.003-.056-.037l-.42-1.564-1.443-5.376-.267-.992L16.54 11H10v2.032z"/>
</svg>
