<svg height="60" viewBox="0 0 59 60" width="59" xmlns="http://www.w3.org/2000/svg"><g fill="#1e1e1e" fill-rule="evenodd"><path d="m29.475 59.198c-16.253 0-29.475-13.278-29.475-29.598 0-16.322 13.222-29.6 29.475-29.6 16.252 0 29.474 13.278 29.474 29.6 0 16.32-13.222 29.598-29.474 29.598zm0-56.948c-15.018 0-27.235 12.268-27.235 27.35 0 15.08 12.216 27.348 27.234 27.348 15.016 0 27.234-12.268 27.234-27.349 0-15.08-12.218-27.349-27.234-27.349z"/><path d="m37.472 25.444a.43.43 0 0 0 -.034-.034 4280.838 4280.838 0 0 0 -5.993 3.317l-3.265-3.397-6.697 7.112.036.048 6.04-3.3a5261.25 5261.25 0 0 0 3.185 3.393c2.256-2.395 4.491-4.769 6.727-7.14m-20.471 3.861v-1.464c.015-.064.035-.125.041-.188.222-2.493 1.194-4.666 2.878-6.504 2.298-2.506 5.183-3.839 8.56-4.103 2.956-.23 5.709.43 8.195 2.057 2.676 1.75 4.432 4.168 5.108 7.32.1.467.147.945.22 1.418v1.465c-.074.48-.124.965-.226 1.44-.652 3.045-2.316 5.423-4.877 7.147-3.278 2.206-6.873 2.746-10.7 1.843-.193-.045-.348-.045-.526.058-.592.34-1.196.66-1.792.99-.733.404-1.463.812-2.193 1.218h-.049c.005-.073.015-.145.015-.218.001-1.315-.002-2.632.005-3.949a.453.453 0 0 0 -.197-.405c-2.202-1.736-3.663-3.946-4.243-6.708-.099-.467-.146-.943-.219-1.416"/></g></svg>