<svg height="60" viewBox="0 0 59 60" width="59" xmlns="http://www.w3.org/2000/svg"><g fill="#1e1e1e" fill-rule="evenodd"><path d="m29.52 59.67c-16.253 0-29.475-13.278-29.475-29.599s13.222-29.6 29.473-29.6c16.253 0 29.475 13.279 29.475 29.6s-13.221 29.599-29.474 29.599zm0-56.948c-15.017 0-27.234 12.268-27.234 27.35 0 15.08 12.217 27.348 27.233 27.348 15.018 0 27.235-12.269 27.235-27.349s-12.217-27.35-27.235-27.35z"/><path d="m33.03 30.605c.035.592.164 1.105.627 1.497.663.56 1.645.796 2.482.405.647-.301 1.007-.806 1.1-1.488.065-.476.017-.968-.325-1.346a2.835 2.835 0 0 0 -.732-.591c-.396-.219-.835-.36-1.244-.56-.519-.253-.726-.706-.555-1.141.147-.375.5-.58.891-.52.441.07.736.366.764.774.003.067 0 .135 0 .213h1.218c-.049-.486-.155-.93-.49-1.288-.771-.823-2.318-.899-3.126-.028-.481.521-.685 1.496-.207 2.137.355.478.87.686 1.371.934.343.172.689.342 1.022.53.21.118.402.668.344.893-.117.459-.407.7-.892.737-.6.049-.853-.12-1.011-.694-.026-.09.004-.198-.027-.283-.028-.072-.107-.17-.166-.173-.34-.018-.68-.008-1.044-.008zm-9.273-2.756c-.051-.486-.151-.935-.491-1.287a2.07 2.07 0 0 0 -1.767-.643c-.793.088-1.484.377-1.828 1.19-.29.69-.108 1.341.355 1.725.378.311.842.523 1.277.765.343.19.703.35 1.046.539.185.104.369.676.324.887-.113.534-.332.667-.892.725-.602.062-.856-.052-.98-.58-.029-.126-.022-.26-.061-.382-.024-.071-.104-.172-.162-.175-.34-.018-.68-.008-1.04-.008.006.683.22 1.245.775 1.628.583.404 1.234.595 1.936.416.334-.087.686-.218.946-.432.484-.396.612-.976.547-1.578-.044-.422-.166-.856-.53-1.109-.378-.26-.81-.441-1.222-.652-.266-.136-.548-.244-.8-.402-.342-.215-.483-.945-.257-1.246.21-.278.494-.428.84-.363.357.069.672.225.747.638.02.11.02.222.033.344zm4.659 3.137c-.042-.032-.064-.04-.066-.052-.392-1.574-.78-3.148-1.175-4.72-.019-.072-.085-.187-.132-.188-.513-.013-1.027-.007-1.538-.007v6.573h1.195v-4.17c.057.125.09.182.107.243.119.4.233.806.35 1.21.22.749.445 1.494.654 2.246.134.483.122.486.637.486.061 0 .125-.006.185.001.142.022.199-.052.234-.177.28-.954.561-1.91.845-2.863.107-.358.221-.715.333-1.073l.052.008v4.089h1.177v-6.576c-.5 0-.982.004-1.464-.003-.156-.002-.178.092-.206.208-.393 1.581-.788 3.162-1.188 4.765zm-12.416-.91v-1.636c.034-.207.077-.413.103-.623.133-1.13.48-2.197.976-3.215a10.64 10.64 0 0 1 1.683-2.472 11.77 11.77 0 0 1 2.198-1.917 13.307 13.307 0 0 1 2.65-1.376 12.137 12.137 0 0 1 3.768-.822c.938-.046 1.887.012 2.823.104.68.066 1.356.227 2.017.41 1.38.38 2.646 1.005 3.815 1.836a11.875 11.875 0 0 1 2.292 2.12c.645.787 1.196 1.642 1.594 2.585.369.876.639 1.778.762 2.72.027.218.069.434.102.65v1.687c-.017.037-.046.07-.05.108-.037.343-.05.691-.113 1.03-.298 1.623-.903 3.136-1.756 4.54-.916 1.507-2.006 2.881-3.32 4.064-.882.796-1.766 1.596-2.704 2.322-.86.668-1.786 1.255-2.701 1.852-.53.346-1.093.64-1.64.956h-.107v-4.455c-.401-.028-.769-.037-1.129-.084-.667-.086-1.338-.158-1.993-.3-1.224-.265-2.376-.735-3.468-1.352a12.284 12.284 0 0 1 -2.408-1.784 10.995 10.995 0 0 1 -2.002-2.57c-.664-1.165-1.107-2.4-1.288-3.729-.031-.217-.07-.433-.104-.65z"/></g></svg>